# xmcd
#
# Track frame offsets: 
#        150
#        23850
#        41025
#        62063
#        84938
#        108975
#        126750
#        150484
#        171559
#        183634
#        209096
#        250496
#        270746
#        291121
#        311146
#
# Disc length: 4407 seconds
#
# Revision: 3
# Processed by: cddbd v1.5.2PL0 Copyright (c) Steve Scherf et al.
# Submitted via: ExactAudioCopy v0.95a3
#
DISCID=e111350f
DTITLE=Various Artist - Mr. Bluesman
DYEAR=1993
DGENRE=Blues
TTITLE0=B. B. King/The Blues Come Over Me
TTITLE1=Nine Below Zero/Soft Touch
TTITLE2=Joe Cockeer/Now That The Magic Has Gone
TTITLE3=Robert Plant/Big Log
TTITLE4=David Lee Roth/Tell The Truth
TTITLE5=Alvin Lee/A Little Bit Of Love
TTITLE6=Kingdom Come/What Love Can Be
TTITLE7=Allman Brothers Band/End Of The Line
TTITLE8=John Lee Hooker/Boom Boom
TTITLE9=The Gary Moore Band/Boogie My Way Back Home
TTITLE10=Stevie Ray Vaughan/Tin Pan Alley
TTITLE11=Rory Gallagher/Loanshark Blues
TTITLE12=Buddy Guy/Damn Right, I've Got The Blues
TTITLE13=Robert Cray/Just A Loser
TTITLE14=Taj Mahal/Don't Call Us
EXTD=1993 Sony Music Entertainment
EXTT0=B.B.King
EXTT1=Nine Below Zero
EXTT2=Joe Cocker
EXTT3=Robert Burns
EXTT4=David Lee Roth
EXTT5=Alvin Lee
EXTT6=Kingdom Come
EXTT7=Allman Brothers Band
EXTT8=John Lee Hooker
EXTT9=The Gary Moore Band
EXTT10=Stevie Ray Vaughan
EXTT11=Rory Gallagher
EXTT12=Buddy Guy
EXTT13=Robert Cray
EXTT14=Taj Mahal
PLAYORDER=
